<svg width="256" height="256" viewBox="0 0 256 256" xmlns="http://www.w3.org/2000/svg"><defs><style/></defs><path d="M149 161.75v-.5q3.25-4 7.5-10.875t7.25-15.875q3.5-.75 6.5-3.5t5.75-9q2.5-5.5 2-13.625T172.25 94.5l.25-1q2.5-7.5 1.375-20t-15.125-27Q143.5 31.75 118 31.75T77 46.5Q63 61 62 73.5t1.25 20l.25 1q-5.25 5.75-5.625 13.875T59.75 122q3 6.25 5.875 9t6.625 3.5q2.75 9 7.125 15.875T87 161.25v.5Q71.75 164.5 42.5 178T10 218q0 2.5 1.75 4.25T16 224h204q2.5 0 4.25-1.75T226 218q-3.25-26.5-32.5-40T149 161.75M23 212q3.25-8 11.125-14.25T50.5 187.5q12.5-6.25 24.25-9.875T93 172.75q3-.5 4.125-3t1.625-5.625q.5-3.125.5-4.625.25-2.5-1.5-4.5-3-2.75-7.625-9.875T83 128q-.75-2.75-3.25-3.875t-4-1.375q-1.5-.25-1.75-.375t-1-1.25q-.75-1.125-2-3.875-1.25-3.5-1-8.25t2.5-6.25q3.75-2 3.75-6.25-.5-2.5-1-5.5-2.25-6.75-1.375-15.875T85.5 55Q97.25 43.5 118 43.5T150.5 55q10.75 11 11.625 20.125T160.75 91q-.5 3-1 5.5 0 2 .875 3.75t2.875 2.5q2.25 1.5 2.625 6.25T165 117.25q-1.25 2.75-2 3.875t-1 1.375q-.25.25-1.75.375t-4 1.25q-2.5 1.125-3.25 3.875-2.5 10-7.25 17.125t-7.5 9.875q-1.75 2-1.5 4.5l.5 4.75q.5 3 1.5 5.25 1.25 2.75 4.25 3.25 6.5 1.25 18.25 4.875t24.25 9.875q8.5 4 16.375 10.25T213 212m25-84q0 1.75-1.125 2.875T234 132h-22v22q0 1.75-1.125 2.875T208 158q-1.75 0-2.875-1.125T204 154v-22h-22q-1.75 0-2.875-1.125T178 128q0-1.75 1.125-2.875T182 124h22v-22q0-1.75 1.125-2.875T208 98q1.75 0 2.875 1.125T212 102v22h22q1.75 0 2.875 1.125T238 128" fill="#34475e" class="transform-group"/></svg>